<?xml version="1.0" encoding="UTF-8" standalone="no"?>
<svg
   width="151"
   height="68"
   viewBox="0 0 151 68"
   fill="none"
   version="1.1"
   id="svg2"
   sodipodi:docname="HORROR EN LÃNEA.svg"
   inkscape:version="1.4.2 (f4327f4, 2025-05-13)"
   xmlns:inkscape="http://www.inkscape.org/namespaces/inkscape"
   xmlns:sodipodi="http://sodipodi.sourceforge.net/DTD/sodipodi-0.dtd"
   xmlns="http://www.w3.org/2000/svg"
   xmlns:svg="http://www.w3.org/2000/svg">
  <sodipodi:namedview
     id="namedview2"
     pagecolor="#ffffff"
     bordercolor="#666666"
     borderopacity="1.0"
     inkscape:showpageshadow="2"
     inkscape:pageopacity="0.0"
     inkscape:pagecheckerboard="0"
     inkscape:deskcolor="#d1d1d1"
     inkscape:zoom="11.313709"
     inkscape:cx="76.588503"
     inkscape:cy="34.780815"
     inkscape:window-width="2560"
     inkscape:window-height="1377"
     inkscape:window-x="1072"
     inkscape:window-y="131"
     inkscape:window-maximized="1"
     inkscape:current-layer="g1" />
  <g
     filter="url(#filter0_i_9_20)"
     id="g1">
    <path
       d="M 9.76,1.352 C 9.44,1.65067 9.16267,2.056 8.928,2.568 8.71467,3.05867 8.53333,3.60267 8.384,4.2 8.256,4.776 8.16,5.384 8.096,6.024 8.032,6.64267 8,7.24 8,7.816 v 4.064 c 0.704,0.0853 1.44,0.1387 2.208,0.16 h 2.368 c 0.576,0 1.1093,-0.0107 1.6,-0.032 0.4907,-0.0213 1.0453,-0.0533 1.664,-0.096 V 7.304 C 15.84,6.25867 15.7653,5.32 15.616,4.488 15.4667,3.63467 15.1787,2.696 14.752,1.672 c 0.768,0.128 1.568,0.192 2.4,0.192 0.896,0 1.8133,-0.05333 2.752,-0.16 0.96,-0.10667 1.9307,-0.224 2.912,-0.352 -0.576,0.34133 -1.024,0.78933 -1.344,1.344 -0.32,0.53333 -0.5653,1.12 -0.736,1.76 -0.1493,0.64 -0.2453,1.29067 -0.288,1.952 -0.0213,0.66133 -0.032,1.28 -0.032,1.856 0,0.49067 0.0213,0.98133 0.064,1.472 0.0427,0.4693 0.1173,0.928 0.224,1.376 0.128,0.4267 0.288,0.8213 0.48,1.184 0.2133,0.3627 0.48,0.6613 0.8,0.896 -0.384,0.6827 -0.736,1.536 -1.056,2.56 -0.2987,1.024 -0.448,2.048 -0.448,3.072 0,0.5547 0.0107,1.0987 0.032,1.632 0.0427,0.512 0.1173,1.0027 0.224,1.472 0.128,0.448 0.2987,0.864 0.512,1.248 0.2347,0.3627 0.5333,0.6613 0.896,0.896 -1.0027,0.3627 -1.76,0.832 -2.272,1.408 -0.512,0.576 -0.9387,1.1413 -1.28,1.696 C 18.4853,26.8987 18.304,26.6 18.048,26.28 17.792,25.9813 17.4933,25.6933 17.152,25.416 16.8107,25.1387 16.4267,24.8827 16,24.648 c -0.4053,-0.2347 -0.832,-0.4267 -1.28,-0.576 0.2773,-0.2987 0.4907,-0.6827 0.64,-1.152 0.1493,-0.4907 0.256,-1.0347 0.32,-1.632 0.0853,-0.5973 0.128,-1.2373 0.128,-1.92 0.0213,-0.6827 0.032,-1.376 0.032,-2.08 v -1.344 c -0.6187,-0.064 -1.1627,-0.1067 -1.632,-0.128 -0.448,-0.0427 -0.928,-0.064 -1.44,-0.064 -0.96,0 -1.824,0.0213 -2.592,0.064 -0.74667,0.0427 -1.45067,0.1067 -2.112,0.192 v 1.696 c 0,1.3653 0.128,2.6667 0.384,3.904 0.256,1.216 0.8,2.4107 1.632,3.584 C 9.12,25.0427 8.256,24.9467 7.488,24.904 6.74133,24.84 6.08,24.808 5.504,24.808 4.544,24.808 3.712,24.84 3.008,24.904 2.304,24.968 1.6,25.0533 0.896,25.16 1.344,24.8827 1.76,24.52 2.144,24.072 2.528,23.624 2.85867,23.1227 3.136,22.568 3.41333,22.0133 3.62667,21.4267 3.776,20.808 3.94667,20.1893 4.032,19.5707 4.032,18.952 4.032,17.864 3.904,16.808 3.648,15.784 3.392,14.7387 2.98667,13.8747 2.432,13.192 3.02933,12.0827 3.43467,11.0693 3.648,10.152 3.88267,9.23467 4,8.28533 4,7.304 4,6.70667 3.968,6.06667 3.904,5.384 3.136,5.192 2.42133,4.776 1.76,4.136 1.12,3.496 0.725333,2.55733 0.576,1.32 1.472,1.512 2.304,1.65067 3.072,1.736 3.84,1.82133 4.56533,1.864 5.248,1.864 6.05867,1.864 6.816,1.81067 7.52,1.704 8.24533,1.576 8.992,1.45867 9.76,1.352 Z m 21.4065,20.032 c 0.384,0.2133 0.736,0.4053 1.056,0.576 0.32,0.1707 0.64,0.3307 0.96,0.48 0.3413,0.128 0.704,0.2453 1.088,0.352 0.384,0.1067 0.8213,0.2027 1.312,0.288 0.896,-0.448 1.6107,-0.736 2.144,-0.864 0.5333,-0.1493 0.8853,-0.2773 1.056,-0.384 0.0427,-2.0693 0.0747,-4.2347 0.096,-6.496 0.0427,-2.2827 0.064,-4.448 0.064,-6.496 V 7.272 c 0,-0.53333 -0.0213,-1.04534 -0.064,-1.536 -0.384,-0.21333 -0.736,-0.40533 -1.056,-0.576 -0.32,-0.17067 -0.6507,-0.32 -0.992,-0.448 -0.32,-0.14933 -0.672,-0.27733 -1.056,-0.384 -0.3627,-0.10667 -0.7893,-0.20267 -1.28,-0.288 -0.896,0.448 -1.6213,0.75733 -2.176,0.928 -0.5333,0.17067 -0.8853,0.30933 -1.056,0.416 -0.0213,0.53333 -0.0427,1.184 -0.064,1.952 -0.0213,0.74667 -0.0427,1.55733 -0.064,2.432 v 2.752 2.816 3.104 c 0.0213,1.1093 0.032,2.0907 0.032,2.944 z m -5.76,-7.968 c 0.2773,-0.2987 0.5227,-0.672 0.736,-1.12 0.2347,-0.4693 0.4373,-0.9707 0.608,-1.504 0.1707,-0.5547 0.2987,-1.13067 0.384,-1.728 0.1067,-0.59733 0.16,-1.184 0.16,-1.76 0,-0.98133 -0.1493,-1.90933 -0.448,-2.784 -0.2987,-0.87467 -0.7893,-1.51467 -1.472,-1.92 0.6613,-0.04267 1.376,-0.128 2.144,-0.256 0.7893,-0.128 1.5787,-0.288 2.368,-0.48 0.7893,-0.192 1.5467,-0.39467 2.272,-0.608 0.7253,-0.23467 1.3653,-0.480001 1.92,-0.736001 0.704,0.106666 1.536,0.288 2.496,0.544001 0.9813,0.23467 1.952,0.48 2.912,0.736 0.96,0.256 1.8347,0.49067 2.624,0.704 0.8107,0.21333 1.3973,0.33067 1.76,0.352 -0.2987,0.49067 -0.512,1.10933 -0.64,1.856 -0.128,0.72533 -0.192,1.48267 -0.192,2.272 0,1.19467 0.1493,2.38933 0.448,3.584 0.2987,1.1733 0.7253,2.1333 1.28,2.88 -0.5333,0.6613 -0.9707,1.568 -1.312,2.72 -0.3413,1.1307 -0.512,2.304 -0.512,3.52 0,0.9813 0.1493,1.8987 0.448,2.752 0.2987,0.8533 0.7893,1.4933 1.472,1.92 -0.6613,0.0427 -1.3973,0.128 -2.208,0.256 -0.7893,0.128 -1.5893,0.288 -2.4,0.48 -0.7893,0.192 -1.5573,0.3947 -2.304,0.608 -0.7467,0.2347 -1.3867,0.48 -1.92,0.736 -0.704,-0.0853 -1.536,-0.2453 -2.496,-0.48 -0.96,-0.2347 -1.92,-0.48 -2.88,-0.736 -0.9387,-0.256 -1.8027,-0.4907 -2.592,-0.704 -0.7893,-0.2347 -1.3547,-0.3733 -1.696,-0.416 0.2987,-0.2773 0.5013,-0.7253 0.608,-1.344 0.128,-0.64 0.192,-1.3653 0.192,-2.176 0,-0.7467 -0.0533,-1.5253 -0.16,-2.336 -0.0853,-0.832 -0.2133,-1.5893 -0.384,-2.272 -0.1493,-0.704 -0.3307,-1.2907 -0.544,-1.76 -0.2133,-0.4693 -0.4373,-0.736 -0.672,-0.8 z m 41.677,10.336 c -0.896,0.64 -1.6,1.408 -2.112,2.304 -0.4907,0.9173 -0.8853,1.824 -1.184,2.72 -0.1067,-0.4267 -0.2667,-0.8853 -0.48,-1.376 -0.192,-0.4907 -0.4373,-0.9707 -0.736,-1.44 -0.2987,-0.448 -0.6507,-0.864 -1.056,-1.248 -0.384,-0.4053 -0.8107,-0.7253 -1.28,-0.96 0.192,-0.192 0.3307,-0.4373 0.416,-0.736 0.1067,-0.32 0.1813,-0.7573 0.224,-1.312 0.064,-0.576 0.1067,-1.3013 0.128,-2.176 0.0213,-0.8747 0.0533,-1.9733 0.096,-3.296 -0.0853,-0.0427 -0.3733,-0.2453 -0.864,-0.608 -0.4693,-0.3627 -0.9813,-0.768 -1.536,-1.216 -0.7467,0.448 -1.4827,0.8853 -2.208,1.312 -0.704,0.4267 -1.3547,0.8213 -1.952,1.184 0.0853,1.6 0.2027,3.1147 0.352,4.544 0.1707,1.408 0.3947,2.6987 0.672,3.872 -0.5547,-0.2773 -1.056,-0.4693 -1.504,-0.576 -0.4267,-0.1067 -0.8427,-0.16 -1.248,-0.16 -0.3627,0 -0.7253,0.032 -1.088,0.096 -0.3413,0.064 -0.704,0.1387 -1.088,0.224 -0.3627,0.064 -0.7467,0.128 -1.152,0.192 -0.4053,0.064 -0.8533,0.096 -1.344,0.096 h -0.352 c -0.128,0 -0.2453,-0.0107 -0.352,-0.032 0.448,-0.2773 0.864,-0.64 1.248,-1.088 0.384,-0.4693 0.7147,-0.9813 0.992,-1.536 0.2773,-0.5547 0.4907,-1.1413 0.64,-1.76 0.1707,-0.6187 0.256,-1.2267 0.256,-1.824 0,-1.088 -0.128,-2.144 -0.384,-3.168 -0.256,-1.0453 -0.6613,-1.9093 -1.216,-2.592 0.5973,-1.1093 1.0027,-2.1547 1.216,-3.136 0.2133,-1.00267 0.32,-1.99467 0.32,-2.976 0,-0.576 -0.032,-1.20533 -0.096,-1.888 -0.896,-0.128 -1.5893,-0.45867 -2.08,-0.992 -0.4693,-0.55467 -0.704,-1.408 -0.704,-2.56 0.896,0.192 1.632,0.33067 2.208,0.416 0.576,0.064 1.1627,0.096 1.76,0.096 0.3413,0 0.7147,-0.01067 1.12,-0.032 0.4053,-0.04267 0.832,-0.128 1.28,-0.256 0.4693,-0.128 0.9707,-0.32 1.504,-0.576 0.5333,-0.27733 1.0987,-0.650667 1.696,-1.120001 0.2347,0.192 0.704,0.437334 1.408,0.736 0.704,0.298671 1.5253,0.586671 2.464,0.864001 0.9387,0.27733 1.9307,0.512 2.976,0.704 1.0667,0.192 2.0693,0.288 3.008,0.288 0.2987,0 0.5867,-0.01067 0.864,-0.032 0.2773,-0.02133 0.5653,-0.05333 0.864,-0.096 -0.2347,0.49066 -0.6933,1.00267 -1.376,1.536 -0.6827,0.512 -1.44,0.928 -2.272,1.248 -0.064,0.29867 -0.096,0.61867 -0.096,0.96 0,0.34133 0.0107,0.704 0.032,1.088 0.0427,0.384 0.0853,0.768 0.128,1.152 0.064,0.384 0.1387,0.74667 0.224,1.088 0.0853,0.3413 0.1813,0.6293 0.288,0.864 -0.2133,0.064 -0.5867,0.2347 -1.12,0.512 -0.512,0.256 -1.1307,0.5973 -1.856,1.024 0.4907,0.448 1.024,0.9173 1.6,1.408 0.576,0.4907 1.1627,0.9173 1.76,1.28 -0.1067,0.2347 -0.192,0.64 -0.256,1.216 -0.0427,0.576 -0.064,1.2373 -0.064,1.984 0,0.5547 0.0213,1.12 0.064,1.696 0.0427,0.5547 0.1173,1.0987 0.224,1.632 0.1067,0.512 0.2347,0.9813 0.384,1.408 0.1707,0.4267 0.384,0.768 0.64,1.024 z m -6.528,-18.56 c -1.152,-0.17067 -2.2187,-0.32 -3.2,-0.448 -0.9813,-0.128 -1.952,-0.30933 -2.912,-0.544 -0.0427,0.53333 -0.064,1.10933 -0.064,1.728 v 1.888 2.496 2.528 c 0.6827,-0.4053 1.3867,-0.8107 2.112,-1.216 0.7253,-0.4267 1.3973,-0.8107 2.016,-1.152 0.6187,-0.3627 1.1307,-0.66133 1.536,-0.896 0.4053,-0.256 0.6293,-0.40533 0.672,-0.448 z m 29.0593,18.56 c -0.896,0.64 -1.6,1.408 -2.112,2.304 -0.4907,0.9173 -0.8854,1.824 -1.184,2.72 -0.1067,-0.4267 -0.2667,-0.8853 -0.48,-1.376 -0.192,-0.4907 -0.4374,-0.9707 -0.736,-1.44 -0.2987,-0.448 -0.6507,-0.864 -1.056,-1.248 -0.384,-0.4053 -0.8107,-0.7253 -1.28,-0.96 0.192,-0.192 0.3306,-0.4373 0.416,-0.736 0.1066,-0.32 0.1813,-0.7573 0.224,-1.312 0.064,-0.576 0.1066,-1.3013 0.128,-2.176 0.0213,-0.8747 0.0533,-1.9733 0.096,-3.296 -0.0854,-0.0427 -0.3734,-0.2453 -0.864,-0.608 -0.4694,-0.3627 -0.9814,-0.768 -1.536,-1.216 -0.7467,0.448 -1.4827,0.8853 -2.208,1.312 -0.704,0.4267 -1.3547,0.8213 -1.952,1.184 0.0853,1.6 0.2026,3.1147 0.352,4.544 0.1706,1.408 0.3946,2.6987 0.672,3.872 -0.5547,-0.2773 -1.056,-0.4693 -1.504,-0.576 -0.4267,-0.1067 -0.8427,-0.16 -1.248,-0.16 -0.3627,0 -0.7254,0.032 -1.088,0.096 -0.3414,0.064 -0.704,0.1387 -1.088,0.224 -0.3627,0.064 -0.7467,0.128 -1.152,0.192 -0.4054,0.064 -0.8534,0.096 -1.344,0.096 h -0.352 c -0.128,0 -0.2454,-0.0107 -0.352,-0.032 0.448,-0.2773 0.864,-0.64 1.248,-1.088 0.384,-0.4693 0.7146,-0.9813 0.992,-1.536 0.2773,-0.5547 0.4906,-1.1413 0.64,-1.76 0.1706,-0.6187 0.256,-1.2267 0.256,-1.824 0,-1.088 -0.128,-2.144 -0.384,-3.168 -0.256,-1.0453 -0.6614,-1.9093 -1.216,-2.592 0.5973,-1.1093 1.0026,-2.1547 1.216,-3.136 0.2133,-1.00267 0.32,-1.99467 0.32,-2.976 0,-0.576 -0.032,-1.20533 -0.0961,-1.888 C 72.0468,5.064 71.3534,4.73333 70.8628,4.2 70.3934,3.64533 70.1588,2.792 70.1588,1.64 c 0.896,0.192 1.632,0.33067 2.208,0.416 0.576,0.064 1.1626,0.096 1.76,0.096 0.3413,0 0.7146,-0.01067 1.12,-0.032 0.4053,-0.04267 0.832,-0.128 1.28,-0.256 0.4693,-0.128 0.9706,-0.32 1.504,-0.576 0.5333,-0.27733 1.0986,-0.650667 1.696,-1.120001 0.2346,0.192 0.704,0.437334 1.408,0.736 0.704,0.298671 1.5253,0.586671 2.464,0.864001 0.9386,0.27733 1.9306,0.512 2.976,0.704 1.0666,0.192 2.0693,0.288 3.008,0.288 0.2986,0 0.5866,-0.01067 0.864,-0.032 0.2773,-0.02133 0.5653,-0.05333 0.864,-0.096 -0.2347,0.49066 -0.6934,1.00267 -1.376,1.536 -0.6827,0.512 -1.44,0.928 -2.272,1.248 -0.064,0.29867 -0.096,0.61867 -0.096,0.96 0,0.34133 0.0106,0.704 0.032,1.088 0.0426,0.384 0.0853,0.768 0.128,1.152 0.064,0.384 0.1386,0.74667 0.224,1.088 0.0853,0.3413 0.1813,0.6293 0.288,0.864 -0.2134,0.064 -0.5867,0.2347 -1.12,0.512 -0.512,0.256 -1.1307,0.5973 -1.856,1.024 0.4906,0.448 1.024,0.9173 1.6,1.408 0.576,0.4907 1.1626,0.9173 1.76,1.28 -0.1067,0.2347 -0.192,0.64 -0.256,1.216 -0.0427,0.576 -0.064,1.2373 -0.064,1.984 0,0.5547 0.0213,1.12 0.064,1.696 0.0426,0.5547 0.1173,1.0987 0.224,1.632 0.1066,0.512 0.2346,0.9813 0.384,1.408 0.1706,0.4267 0.384,0.768 0.64,1.024 z m -6.528,-18.56 c -1.152,-0.17067 -2.2187,-0.32 -3.2,-0.448 -0.9814,-0.128 -1.952,-0.30933 -2.912,-0.544 -0.0427,0.53333 -0.064,1.10933 -0.064,1.728 v 1.888 2.496 2.528 c 0.6826,-0.4053 1.3866,-0.8107 2.112,-1.216 0.7253,-0.4267 1.3973,-0.8107 2.016,-1.152 0.6186,-0.3627 1.1306,-0.66133 1.536,-0.896 0.4053,-0.256 0.6293,-0.40533 0.672,-0.448 z M 98.354,21.384 c 0.384,0.2133 0.736,0.4053 1.056,0.576 0.32,0.1707 0.64,0.3307 0.96,0.48 0.341,0.128 0.704,0.2453 1.088,0.352 0.384,0.1067 0.821,0.2027 1.312,0.288 0.896,-0.448 1.611,-0.736 2.144,-0.864 0.533,-0.1493 0.885,-0.2773 1.056,-0.384 0.043,-2.0693 0.075,-4.2347 0.096,-6.496 0.043,-2.2827 0.064,-4.448 0.064,-6.496 V 7.272 c 0,-0.53333 -0.021,-1.04534 -0.064,-1.536 -0.384,-0.21333 -0.736,-0.40533 -1.056,-0.576 -0.32,-0.17067 -0.651,-0.32 -0.992,-0.448 -0.32,-0.14933 -0.672,-0.27733 -1.056,-0.384 -0.363,-0.10667 -0.789,-0.20267 -1.28,-0.288 -0.896,0.448 -1.621,0.75733 -2.176,0.928 -0.5333,0.17067 -0.8853,0.30933 -1.056,0.416 -0.0213,0.53333 -0.0427,1.184 -0.064,1.952 -0.0213,0.74667 -0.0427,1.55733 -0.064,2.432 v 2.752 2.816 3.104 c 0.0213,1.1093 0.032,2.0907 0.032,2.944 z m -5.76,-7.968 c 0.2773,-0.2987 0.5227,-0.672 0.736,-1.12 0.2347,-0.4693 0.4373,-0.9707 0.608,-1.504 0.1707,-0.5547 0.2987,-1.13067 0.384,-1.728 0.1067,-0.59733 0.16,-1.184 0.16,-1.76 0,-0.98133 -0.1493,-1.90933 -0.448,-2.784 -0.2987,-0.87467 -0.7893,-1.51467 -1.472,-1.92 0.6613,-0.04267 1.376,-0.128 2.144,-0.256 0.7893,-0.128 1.5787,-0.288 2.368,-0.48 0.7893,-0.192 1.5467,-0.39467 2.272,-0.608 0.725,-0.23467 1.365,-0.480001 1.92,-0.736001 0.704,0.106666 1.536,0.288 2.496,0.544001 0.981,0.23467 1.952,0.48 2.912,0.736 0.96,0.256 1.835,0.49067 2.624,0.704 0.811,0.21333 1.397,0.33067 1.76,0.352 -0.299,0.49067 -0.512,1.10933 -0.64,1.856 -0.128,0.72533 -0.192,1.48267 -0.192,2.272 0,1.19467 0.149,2.38933 0.448,3.584 0.299,1.1733 0.725,2.1333 1.28,2.88 -0.533,0.6613 -0.971,1.568 -1.312,2.72 -0.341,1.1307 -0.512,2.304 -0.512,3.52 0,0.9813 0.149,1.8987 0.448,2.752 0.299,0.8533 0.789,1.4933 1.472,1.92 -0.661,0.0427 -1.397,0.128 -2.208,0.256 -0.789,0.128 -1.589,0.288 -2.4,0.48 -0.789,0.192 -1.557,0.3947 -2.304,0.608 -0.747,0.2347 -1.387,0.48 -1.92,0.736 -0.704,-0.0853 -1.536,-0.2453 -2.496,-0.48 -0.96,-0.2347 -1.92,-0.48 -2.88,-0.736 -0.9387,-0.256 -1.8027,-0.4907 -2.592,-0.704 -0.7893,-0.2347 -1.3547,-0.3733 -1.696,-0.416 0.2987,-0.2773 0.5013,-0.7253 0.608,-1.344 0.128,-0.64 0.192,-1.3653 0.192,-2.176 0,-0.7467 -0.0533,-1.5253 -0.16,-2.336 -0.0853,-0.832 -0.2133,-1.5893 -0.384,-2.272 -0.1493,-0.704 -0.3307,-1.2907 -0.544,-1.76 -0.2133,-0.4693 -0.4373,-0.736 -0.672,-0.8 z m 41.677,10.336 c -0.896,0.64 -1.6,1.408 -2.112,2.304 -0.491,0.9173 -0.885,1.824 -1.184,2.72 -0.107,-0.4267 -0.267,-0.8853 -0.48,-1.376 -0.192,-0.4907 -0.437,-0.9707 -0.736,-1.44 -0.299,-0.448 -0.651,-0.864 -1.056,-1.248 -0.384,-0.4053 -0.811,-0.7253 -1.28,-0.96 0.192,-0.192 0.331,-0.4373 0.416,-0.736 0.107,-0.32 0.181,-0.7573 0.224,-1.312 0.064,-0.576 0.107,-1.3013 0.128,-2.176 0.021,-0.8747 0.053,-1.9733 0.096,-3.296 -0.085,-0.0427 -0.373,-0.2453 -0.864,-0.608 -0.469,-0.3627 -0.981,-0.768 -1.536,-1.216 -0.747,0.448 -1.483,0.8853 -2.208,1.312 -0.704,0.4267 -1.355,0.8213 -1.952,1.184 0.085,1.6 0.203,3.1147 0.352,4.544 0.171,1.408 0.395,2.6987 0.672,3.872 -0.555,-0.2773 -1.056,-0.4693 -1.504,-0.576 -0.427,-0.1067 -0.843,-0.16 -1.248,-0.16 -0.363,0 -0.725,0.032 -1.088,0.096 -0.341,0.064 -0.704,0.1387 -1.088,0.224 -0.363,0.064 -0.747,0.128 -1.152,0.192 -0.405,0.064 -0.853,0.096 -1.344,0.096 h -0.352 c -0.128,0 -0.245,-0.0107 -0.352,-0.032 0.448,-0.2773 0.864,-0.64 1.248,-1.088 0.384,-0.4693 0.715,-0.9813 0.992,-1.536 0.277,-0.5547 0.491,-1.1413 0.64,-1.76 0.171,-0.6187 0.256,-1.2267 0.256,-1.824 0,-1.088 -0.128,-2.144 -0.384,-3.168 -0.256,-1.0453 -0.661,-1.9093 -1.216,-2.592 0.597,-1.1093 1.003,-2.1547 1.216,-3.136 0.213,-1.00267 0.32,-1.99467 0.32,-2.976 0,-0.576 -0.032,-1.20533 -0.096,-1.888 -0.896,-0.128 -1.589,-0.45867 -2.08,-0.992 -0.469,-0.55467 -0.704,-1.408 -0.704,-2.56 0.896,0.192 1.632,0.33067 2.208,0.416 0.576,0.064 1.163,0.096 1.76,0.096 0.341,0 0.715,-0.01067 1.12,-0.032 0.405,-0.04267 0.832,-0.128 1.28,-0.256 0.469,-0.128 0.971,-0.32 1.504,-0.576 0.533,-0.27733 1.099,-0.650667 1.696,-1.120001 0.235,0.192 0.704,0.437334 1.408,0.736 0.704,0.298671 1.525,0.586671 2.464,0.864001 0.939,0.27733 1.931,0.512 2.976,0.704 1.067,0.192 2.069,0.288 3.008,0.288 0.299,0 0.587,-0.01067 0.864,-0.032 0.277,-0.02133 0.565,-0.05333 0.864,-0.096 -0.235,0.49066 -0.693,1.00267 -1.376,1.536 -0.683,0.512 -1.44,0.928 -2.272,1.248 -0.064,0.29867 -0.096,0.61867 -0.096,0.96 0,0.34133 0.011,0.704 0.032,1.088 0.043,0.384 0.085,0.768 0.128,1.152 0.064,0.384 0.139,0.74667 0.224,1.088 0.085,0.3413 0.181,0.6293 0.288,0.864 -0.213,0.064 -0.587,0.2347 -1.12,0.512 -0.512,0.256 -1.131,0.5973 -1.856,1.024 0.491,0.448 1.024,0.9173 1.6,1.408 0.576,0.4907 1.163,0.9173 1.76,1.28 -0.107,0.2347 -0.192,0.64 -0.256,1.216 -0.043,0.576 -0.064,1.2373 -0.064,1.984 0,0.5547 0.021,1.12 0.064,1.696 0.043,0.5547 0.117,1.0987 0.224,1.632 0.107,0.512 0.235,0.9813 0.384,1.408 0.171,0.4267 0.384,0.768 0.64,1.024 z m -6.528,-18.56 c -1.152,-0.17067 -2.219,-0.32 -3.2,-0.448 -0.981,-0.128 -1.952,-0.30933 -2.912,-0.544 -0.043,0.53333 -0.064,1.10933 -0.064,1.728 v 1.888 2.496 2.528 c 0.683,-0.4053 1.387,-0.8107 2.112,-1.216 0.725,-0.4267 1.397,-0.8107 2.016,-1.152 0.619,-0.3627 1.131,-0.66133 1.536,-0.896 0.405,-0.256 0.629,-0.40533 0.672,-0.448 z M 1.472,60 c 0.32,-0.192 0.59733,-0.5547 0.832,-1.088 0.256,-0.5333 0.46933,-1.1413 0.64,-1.824 0.192,-0.6827 0.33067,-1.3867 0.416,-2.112 0.08533,-0.7467 0.128,-1.4293 0.128,-2.048 0,-0.96 -0.10667,-1.8773 -0.32,-2.752 C 2.976,49.3013 2.69867,48.64 2.336,48.192 2.67733,47.8507 2.95467,47.4027 3.168,46.848 3.40267,46.272 3.584,45.664 3.712,45.024 3.84,44.3627 3.92533,43.6907 3.968,43.008 4.01067,42.3253 4.032,41.6853 4.032,41.088 4.032,40.5973 4.02133,40.1707 4,39.808 3.97867,39.4453 3.95733,39.168 3.936,38.976 3.44533,38.8053 2.93333,38.4533 2.4,37.92 1.888,37.3867 1.504,36.8107 1.248,36.192 c 1.36533,0.1493 2.656,0.256 3.872,0.32 1.23733,0.0427 2.4,0.064 3.488,0.064 2.3253,0 4.2027,-0.0747 5.632,-0.224 1.4293,-0.1493 2.56,-0.224 3.392,-0.224 0.1707,0 0.32,0.0107 0.448,0.032 0.128,0 0.2453,0.0107 0.352,0.032 -0.128,0.2347 -0.2667,0.6613 -0.416,1.28 -0.128,0.6187 -0.256,1.3013 -0.384,2.048 -0.128,0.7253 -0.2453,1.44 -0.352,2.144 -0.0853,0.6827 -0.1493,1.1947 -0.192,1.536 l -0.224,0.096 c -0.7467,-0.4267 -1.2907,-0.9067 -1.632,-1.44 -0.32,-0.5333 -0.5653,-1.1733 -0.736,-1.92 -0.2987,-0.2347 -0.672,-0.384 -1.12,-0.448 -0.448,-0.064 -1.0133,-0.096 -1.696,-0.096 -0.5547,0 -1.088,0.0107 -1.6,0.032 -0.512,0.0213 -0.91733,0.032 -1.216,0.032 -0.17067,0.832 -0.29867,1.8453 -0.384,3.04 -0.08533,1.1947 -0.14933,2.464 -0.192,3.808 0.29867,0.0427 0.59733,0.0747 0.896,0.096 H 9.92 c 0.448,0 0.8853,-0.1707 1.312,-0.512 0.448,-0.3627 0.8747,-0.8213 1.28,-1.376 0.1067,0.256 0.2133,0.5547 0.32,0.896 0.1067,0.32 0.224,0.6507 0.352,0.992 0.1493,0.32 0.3093,0.6293 0.48,0.928 0.1707,0.2987 0.3733,0.5227 0.608,0.672 -0.192,0.192 -0.384,0.4373 -0.576,0.736 -0.1707,0.2987 -0.3413,0.6187 -0.512,0.96 -0.1493,0.3413 -0.2987,0.6827 -0.448,1.024 -0.128,0.3413 -0.2453,0.6507 -0.352,0.928 -0.128,-0.2347 -0.2773,-0.4907 -0.448,-0.768 -0.1707,-0.2773 -0.352,-0.5333 -0.544,-0.768 -0.192,-0.2347 -0.4053,-0.4267 -0.64,-0.576 -0.2133,-0.1707 -0.448,-0.256 -0.704,-0.256 -0.192,0 -0.46933,0.0107 -0.832,0.032 -0.36267,0.0213 -0.69333,0.064 -0.992,0.128 v 0.576 c 0,1.344 0.01067,2.624 0.032,3.84 0.04267,1.1947 0.10667,2.24 0.192,3.136 l 5.408,0.544 c 0.2987,-1.3227 0.8213,-2.496 1.568,-3.52 0.768,-1.024 1.5893,-2.016 2.464,-2.976 l 0.192,0.064 c -0.064,0.4907 -0.1067,0.9813 -0.128,1.472 -0.0213,0.4693 -0.032,0.928 -0.032,1.376 0,1.1093 0.0533,2.112 0.16,3.008 0.1067,0.896 0.2347,1.568 0.384,2.016 -0.3627,0.0427 -0.7253,0.1067 -1.088,0.192 -0.3413,0.064 -0.7147,0.1813 -1.12,0.352 -0.4053,0.1707 -0.8427,0.4053 -1.312,0.704 -0.448,0.2987 -0.9493,0.6827 -1.504,1.152 C 11.648,60.8427 9.87733,60.4373 8.128,60.16 6.37867,59.904 4.8,59.776 3.392,59.776 c -0.68267,0 -1.312,0.1067 -1.888,0.32 z m 35.1695,-4.16 c -0.1067,-2.112 -0.192,-4.1387 -0.256,-6.08 -0.0427,-1.9413 -0.0853,-3.6587 -0.128,-5.152 -0.0213,-1.4933 -0.0427,-2.688 -0.064,-3.584 v -1.376 c -0.1067,-1.3013 -0.7787,-2.1973 -2.016,-2.688 0.2133,0.0213 0.416,0.032 0.608,0.032 h 0.64 c 0.96,0 1.8347,-0.0427 2.624,-0.128 0.8107,-0.1067 1.5467,-0.2133 2.208,-0.32 0.6613,-0.1067 1.2587,-0.2027 1.792,-0.288 0.5547,-0.1067 1.0667,-0.16 1.536,-0.16 0.256,0 0.5013,0.032 0.736,0.096 -1.28,0.9173 -2.272,1.92 -2.976,3.008 -0.6827,1.0667 -1.024,2.272 -1.024,3.616 0,1.5787 0.5227,3.3707 1.568,5.376 -0.4907,1.2373 -0.896,2.5707 -1.216,4 -0.2987,1.4293 -0.448,2.8587 -0.448,4.288 0,0.6187 0.05255,1.11455 0.3765,2.144 0.28275,0.7893 1.0457,1.66175 2.2575,2.74225 -5.141475,0.3095 -4.120672,-1.593924 -9.5345,0.1895 0.9685,-0.73975 1.01245,-1.4413 0.50675,-2.41725 -1.14055,-1.51705 -0.53955,-0.9732 -1.47825,-2.2745 -0.9173,-1.3227 -1.7493,-2.656 -2.496,-4 -0.7253,-1.344 -1.376,-2.624 -1.952,-3.84 v 3.264 c 0,1.3227 0.0427,2.432 0.128,3.328 0.0853,0.896 0.224,1.6747 0.416,2.336 0.192,0.6613 0.4373,1.248 0.736,1.76 0.2987,0.4907 0.6613,0.992 1.088,1.504 -0.4693,-0.128 -0.8853,-0.256 -1.248,-0.384 -0.3413,-0.128 -0.6827,-0.2773 -1.024,-0.448 -0.32,-0.1707 -0.6613,-0.384 -1.024,-0.64 -0.3413,-0.256 -0.7467,-0.576 -1.216,-0.96 -0.576,1.024 -1.344,1.9093 -2.304,2.656 -0.96,0.7467 -2.2507,1.3867 -3.872,1.92 0.64,-0.6187 1.2373,-1.3227 1.792,-2.112 0.5547,-0.768 1.0347,-1.5893 1.44,-2.464 0.4267,-0.896 0.7573,-1.8133 0.992,-2.752 0.256,-0.9387 0.384,-1.888 0.384,-2.848 0,-0.896 -0.1173,-1.76 -0.352,-2.592 -0.2133,-0.832 -0.576,-1.632 -1.088,-2.4 1.0453,-2.0053 1.568,-3.7973 1.568,-5.376 0,-1.344 -0.352,-2.5493 -1.056,-3.616 -0.6827,-1.088 -1.664,-2.0907 -2.944,-3.008 0.2133,-0.064 0.4587,-0.096 0.736,-0.096 0.4267,0 0.9067,0.0533 1.44,0.16 0.5547,0.0853 1.152,0.1813 1.792,0.288 0.6613,0.1067 1.3653,0.2133 2.112,0.32 0.768,0.0853 1.5893,0.128 2.464,0.128 h 0.608 c 0.2133,0 0.4267,-0.0107 0.64,-0.032 -1.152,0.448 -1.8133,1.2373 -1.984,2.368 0.384,0.96 0.8427,2.0693 1.376,3.328 0.5547,1.2587 1.1627,2.5813 1.824,3.968 0.6827,1.3867 1.4187,2.7947 2.208,4.224 0.7893,1.408 1.6107,2.752 2.464,4.032 z m 40.614,9.696 c -1.6213,0.8107 -3.136,1.3227 -4.544,1.536 -1.408,0.2133 -2.688,0.32 -3.84,0.32 -1.1733,0 -2.2187,-0.1493 -3.136,-0.448 -0.9173,-0.2987 -1.76,-0.6827 -2.528,-1.152 -0.7467,-0.448 -1.44,-0.9387 -2.08,-1.472 -0.64,-0.5333 -1.2693,-1.0347 -1.888,-1.504 -0.6187,-0.448 -1.248,-0.8213 -1.888,-1.12 -0.6187,-0.2987 -1.3013,-0.448 -2.048,-0.448 -0.6827,0 -1.376,0.064 -2.08,0.192 0.8533,-1.024 1.4827,-2.2293 1.888,-3.616 0.4053,-1.408 0.608,-2.88 0.608,-4.416 0,-0.448 -0.0213,-0.9067 -0.064,-1.376 -0.0427,-0.4907 -0.128,-0.96 -0.256,-1.408 -0.1067,-0.4693 -0.2773,-0.9067 -0.512,-1.312 -0.2133,-0.4267 -0.5013,-0.8 -0.864,-1.12 0.5973,-1.1093 1.0027,-2.1227 1.216,-3.04 0.2347,-0.9173 0.352,-1.8667 0.352,-2.848 0,-1.0027 -0.064,-1.7707 -0.192,-2.304 -0.1067,-0.5547 -0.288,-0.992 -0.544,-1.312 -0.256,-0.32 -0.5867,-0.5867 -0.992,-0.8 -0.384,-0.2347 -0.864,-0.544 -1.44,-0.928 0.4053,0.0427 0.7893,0.0747 1.152,0.096 0.384,0.0213 0.7573,0.032 1.12,0.032 0.8533,0 1.6427,-0.0427 2.368,-0.128 0.7253,-0.0853 1.408,-0.1813 2.048,-0.288 0.64,-0.1067 1.2587,-0.2027 1.856,-0.288 0.5973,-0.0853 1.2053,-0.128 1.824,-0.128 0.4267,0 0.8853,0.032 1.376,0.096 -0.5333,0 -1.0453,0.2027 -1.536,0.608 -0.4693,0.4053 -0.896,0.928 -1.28,1.568 -0.3627,0.6187 -0.6613,1.312 -0.896,2.08 -0.2133,0.7467 -0.32,1.4827 -0.32,2.208 v 8.096 c 0,0.704 0.0213,1.376 0.064,2.016 0.064,0.6187 0.1387,1.184 0.224,1.696 0.1067,0.4907 0.224,0.9173 0.352,1.28 0.128,0.3627 0.2667,0.6187 0.416,0.768 -0.3627,0.1493 -0.7893,0.352 -1.28,0.608 -0.4693,0.2347 -0.832,0.5973 -1.088,1.088 0.128,0.4267 0.5013,0.96 1.12,1.6 0.64,0.6187 1.376,1.2373 2.208,1.856 0.832,0.64 1.6853,1.216 2.56,1.728 0.896,0.512 1.6533,0.864 2.272,1.056 -0.2773,-0.3627 -0.5547,-0.7893 -0.832,-1.28 -0.256,-0.4693 -0.4693,-0.8853 -0.64,-1.248 0.9813,0.5973 1.888,1.0987 2.72,1.504 0.832,0.4053 1.6107,0.736 2.336,0.992 0.7467,0.256 1.4613,0.4373 2.144,0.544 0.6827,0.1067 1.376,0.16 2.08,0.16 0.3627,0 0.736,-0.0213 1.12,-0.064 0.384,-0.0213 0.7893,-0.0533 1.216,-0.096 z m 1.0018,-29.184 c -0.448,0.2987 -0.832,0.704 -1.152,1.216 -0.2987,0.4907 -0.544,1.0347 -0.736,1.632 -0.1707,0.576 -0.2987,1.184 -0.384,1.824 -0.0854,0.6187 -0.128,1.216 -0.128,1.792 0,0.4053 0.0106,0.8427 0.032,1.312 0.0426,0.448 0.096,0.9173 0.16,1.408 0.0853,0.4693 0.1813,0.9387 0.288,1.408 0.128,0.448 0.2773,0.864 0.448,1.248 -0.3414,0.576 -0.576,1.2693 -0.704,2.08 -0.1067,0.8107 -0.16,1.6213 -0.16,2.432 0,1.3653 0.1706,2.6667 0.512,3.904 0.3413,1.216 1.056,2.4107 2.144,3.584 -1.152,-0.1493 -2.1654,-0.2453 -3.04,-0.288 -0.8534,-0.064 -1.632,-0.096 -2.336,-0.096 -0.96,0 -1.792,0.032 -2.496,0.096 -0.704,0.064 -1.408,0.1493 -2.112,0.256 0.448,-0.2773 0.864,-0.64 1.248,-1.088 0.384,-0.4693 0.7146,-0.9813 0.992,-1.536 0.2773,-0.5547 0.4906,-1.1413 0.64,-1.76 0.1706,-0.6187 0.256,-1.2267 0.256,-1.824 0,-1.088 -0.128,-2.144 -0.384,-3.168 -0.256,-1.0453 -0.6614,-1.9093 -1.216,-2.592 0.5973,-1.1093 0.992,-2.1227 1.184,-3.04 0.192,-0.9173 0.288,-1.8667 0.288,-2.848 0,-0.5973 -0.032,-1.2373 -0.0961,-1.92 -0.8319,-0.3413 -1.3973,-0.8747 -1.6959,-1.6 -0.2987,-0.7467 -0.4907,-1.568 -0.576,-2.464 0.704,0.192 1.3546,0.3307 1.952,0.416 0.6186,0.0853 1.2053,0.128 1.76,0.128 0.9813,0 1.888,-0.0533 2.72,-0.16 0.832,-0.128 1.696,-0.2453 2.592,-0.352 z m -6.784,-3.456 c 0.256,-0.1493 0.6506,-0.352 1.184,-0.608 0.5546,-0.256 1.1413,-0.5227 1.76,-0.8 0.6186,-0.2987 1.216,-0.5867 1.792,-0.864 0.5973,-0.2987 1.0773,-0.5653 1.44,-0.8 0.0426,0.2133 0.128,0.4907 0.256,0.832 0.128,0.3413 0.2666,0.6933 0.416,1.056 0.1493,0.3413 0.2986,0.672 0.448,0.992 0.1493,0.2987 0.2666,0.5227 0.352,0.672 -0.2347,0.0213 -0.6294,0.0853 -1.184,0.192 -0.5334,0.0853 -1.1414,0.192 -1.824,0.32 -0.6827,0.128 -1.3867,0.2667 -2.112,0.416 -0.704,0.1493 -1.3227,0.2987 -1.856,0.448 -0.1707,-0.4053 -0.288,-0.7253 -0.352,-0.96 -0.0427,-0.2347 -0.1494,-0.5333 -0.32,-0.896 z M 106.003,60 c 0.32,-0.192 0.598,-0.5547 0.832,-1.088 0.256,-0.5333 0.47,-1.1413 0.64,-1.824 0.192,-0.6827 0.331,-1.3867 0.416,-2.112 0.086,-0.7467 0.128,-1.4293 0.128,-2.048 0,-0.96 -0.106,-1.8773 -0.32,-2.752 -0.192,-0.8747 -0.469,-1.536 -0.832,-1.984 0.342,-0.3413 0.619,-0.7893 0.832,-1.344 0.235,-0.576 0.416,-1.184 0.544,-1.824 0.128,-0.6613 0.214,-1.3333 0.256,-2.016 0.043,-0.6827 0.064,-1.3227 0.064,-1.92 0,-0.4907 -0.01,-0.9173 -0.032,-1.28 -0.021,-0.3627 -0.042,-0.64 -0.064,-0.832 -0.49,-0.1707 -1.002,-0.5227 -1.536,-1.056 -0.512,-0.5333 -0.896,-1.1093 -1.152,-1.728 1.366,0.1493 2.656,0.256 3.872,0.32 1.238,0.0427 2.4,0.064 3.488,0.064 2.326,0 4.203,-0.0747 5.632,-0.224 1.43,-0.1493 2.56,-0.224 3.392,-0.224 0.171,0 0.32,0.0107 0.448,0.032 0.128,0 0.246,0.0107 0.352,0.032 -0.128,0.2347 -0.266,0.6613 -0.416,1.28 -0.128,0.6187 -0.256,1.3013 -0.384,2.048 -0.128,0.7253 -0.245,1.44 -0.352,2.144 -0.085,0.6827 -0.149,1.1947 -0.192,1.536 l -0.224,0.096 c -0.746,-0.4267 -1.29,-0.9067 -1.632,-1.44 -0.32,-0.5333 -0.565,-1.1733 -0.736,-1.92 -0.298,-0.2347 -0.672,-0.384 -1.12,-0.448 -0.448,-0.064 -1.013,-0.096 -1.696,-0.096 -0.554,0 -1.088,0.0107 -1.6,0.032 -0.512,0.0213 -0.917,0.032 -1.216,0.032 -0.17,0.832 -0.298,1.8453 -0.384,3.04 -0.085,1.1947 -0.149,2.464 -0.192,3.808 0.299,0.0427 0.598,0.0747 0.896,0.096 h 0.736 c 0.448,0 0.886,-0.1707 1.312,-0.512 0.448,-0.3627 0.875,-0.8213 1.28,-1.376 0.107,0.256 0.214,0.5547 0.32,0.896 0.107,0.32 0.224,0.6507 0.352,0.992 0.15,0.32 0.31,0.6293 0.48,0.928 0.171,0.2987 0.374,0.5227 0.608,0.672 -0.192,0.192 -0.384,0.4373 -0.576,0.736 -0.17,0.2987 -0.341,0.6187 -0.512,0.96 -0.149,0.3413 -0.298,0.6827 -0.448,1.024 -0.128,0.3413 -0.245,0.6507 -0.352,0.928 -0.128,-0.2347 -0.277,-0.4907 -0.448,-0.768 -0.17,-0.2773 -0.352,-0.5333 -0.544,-0.768 -0.192,-0.2347 -0.405,-0.4267 -0.64,-0.576 -0.213,-0.1707 -0.448,-0.256 -0.704,-0.256 -0.192,0 -0.469,0.0107 -0.832,0.032 -0.362,0.0213 -0.693,0.064 -0.992,0.128 v 0.576 c 0,1.344 0.011,2.624 0.032,3.84 0.043,1.1947 0.107,2.24 0.192,3.136 l 5.408,0.544 c 0.299,-1.3227 0.822,-2.496 1.568,-3.52 0.768,-1.024 1.59,-2.016 2.464,-2.976 l 0.192,0.064 c -0.064,0.4907 -0.106,0.9813 -0.128,1.472 -0.021,0.4693 -0.032,0.928 -0.032,1.376 0,1.1093 0.054,2.112 0.16,3.008 0.107,0.896 0.235,1.568 0.384,2.016 -0.362,0.0427 -0.725,0.1067 -1.088,0.192 -0.341,0.064 -0.714,0.1813 -1.12,0.352 -0.405,0.1707 -0.842,0.4053 -1.312,0.704 -0.448,0.2987 -0.949,0.6827 -1.504,1.152 -1.792,-0.5333 -3.562,-0.9387 -5.312,-1.216 -1.749,-0.256 -3.328,-0.384 -4.736,-0.384 -0.682,0 -1.312,0.1067 -1.888,0.32 z m 44.802,1.792 c -1.216,-0.4267 -2.422,-0.896 -3.616,-1.408 -1.174,-0.4907 -2.336,-1.0773 -3.488,-1.76 -0.278,0.2773 -0.523,0.512 -0.736,0.704 -0.214,0.192 -0.438,0.3627 -0.672,0.512 -0.235,0.128 -0.491,0.2347 -0.768,0.32 -0.256,0.1067 -0.566,0.2027 -0.928,0.288 0.213,-0.256 0.362,-0.5653 0.448,-0.928 0.085,-0.3627 0.128,-0.736 0.128,-1.12 0,-0.6187 -0.086,-1.216 -0.256,-1.792 -0.15,-0.5973 -0.288,-1.0987 -0.416,-1.504 l -0.768,-2.432 c -0.619,0.8107 -1.238,1.7067 -1.856,2.688 -0.598,0.9813 -1.12,1.92 -1.568,2.816 -0.363,-0.512 -0.854,-1.2373 -1.472,-2.176 -0.598,-0.9387 -1.27,-1.952 -2.016,-3.04 l -0.512,1.664 c -0.128,0.4267 -0.235,0.8533 -0.32,1.28 -0.064,0.4267 -0.096,0.864 -0.096,1.312 0,0.6613 0.085,1.312 0.256,1.952 0.17,0.64 0.448,1.2373 0.832,1.792 -0.427,-0.1493 -0.79,-0.2987 -1.088,-0.448 -0.278,-0.1493 -0.544,-0.32 -0.8,-0.512 -0.235,-0.192 -0.48,-0.3947 -0.736,-0.608 -0.235,-0.2347 -0.512,-0.5013 -0.832,-0.8 -0.896,0.8533 -1.782,1.4507 -2.656,1.792 -0.875,0.3627 -1.856,0.5547 -2.944,0.576 0.405,-0.064 0.832,-0.3307 1.28,-0.8 0.448,-0.448 0.885,-1.0347 1.312,-1.76 0.426,-0.7467 0.832,-1.5893 1.216,-2.528 0.405,-0.9387 0.757,-1.9307 1.056,-2.976 l 1.024,-3.584 c -0.747,-0.7893 -1.558,-1.4613 -2.432,-2.016 -0.875,-0.576 -1.664,-0.864 -2.368,-0.864 h -0.16 c -0.064,0 -0.192,0.0107 -0.384,0.032 l -0.032,-0.096 c 0.917,-0.4693 1.77,-0.704 2.56,-0.704 0.533,0 1.077,0.1067 1.632,0.32 0.554,0.192 1.194,0.4907 1.92,0.896 l 1.728,-5.92 c 0.106,-0.3627 0.181,-0.6827 0.224,-0.96 0.042,-0.2773 0.064,-0.5013 0.064,-0.672 0,-0.448 -0.139,-0.768 -0.416,-0.96 -0.256,-0.192 -0.726,-0.288 -1.408,-0.288 -0.427,0 -0.886,0.032 -1.376,0.096 -0.491,0.064 -1.078,0.16 -1.76,0.288 0.128,-0.192 0.437,-0.416 0.928,-0.672 0.49,-0.256 1.077,-0.5013 1.76,-0.736 0.704,-0.2347 1.45,-0.4267 2.24,-0.576 0.81,-0.1707 1.589,-0.256 2.336,-0.256 0.554,0 1.088,0.064 1.6,0.192 0.512,0.128 0.896,0.352 1.152,0.672 0.384,-0.0213 0.8,-0.0747 1.248,-0.16 0.448,-0.0853 0.874,-0.1813 1.28,-0.288 0.405,-0.128 0.768,-0.2453 1.088,-0.352 0.32,-0.128 0.533,-0.224 0.64,-0.288 -0.299,0.4267 -0.523,0.9387 -0.672,1.536 -0.128,0.576 -0.192,1.2053 -0.192,1.888 0,0.8747 0.096,1.792 0.288,2.752 0.192,0.9387 0.416,1.8133 0.672,2.624 0.277,0.8107 0.565,1.504 0.864,2.08 0.298,0.576 0.554,0.928 0.768,1.056 0,1.2587 0.213,2.592 0.64,4 0.448,1.408 1.013,2.752 1.696,4.032 0.704,1.28 1.482,2.432 2.336,3.456 0.874,1.0027 1.728,1.76 2.56,2.272 z m -14.528,-8.864 c 0.362,-0.4907 0.768,-1.0133 1.216,-1.568 0.469,-0.576 0.896,-1.1413 1.28,-1.696 l -2.464,-8 -2.528,8.256 c 0.426,0.448 0.853,0.9493 1.28,1.504 0.448,0.5547 0.853,1.056 1.216,1.504 z M 96.392801,55.84 c -0.1067,-2.112 -0.192,-4.1387 -0.256,-6.08 -0.0427,-1.9413 -0.0853,-3.6587 -0.128,-5.152 -0.0213,-1.4933 -0.0427,-2.688 -0.064,-3.584 v -1.376 c -0.1067,-1.3013 -0.7787,-2.1973 -2.016,-2.688 0.2133,0.0213 0.416,0.032 0.608,0.032 h 0.64 c 0.96,0 1.8347,-0.0427 2.624,-0.128 0.8107,-0.1067 1.5467,-0.2133 2.207999,-0.32 0.6613,-0.1067 1.2587,-0.2027 1.792,-0.288 0.5547,-0.1067 1.0667,-0.16 1.536,-0.16 0.256,0 0.5013,0.032 0.736,0.096 -1.28,0.9173 -2.272,1.92 -2.976,3.008 -0.6827,1.0667 -1.024,2.272 -1.024,3.616 0,1.5787 0.5227,3.3707 1.568,5.376 -0.4907,1.2373 -0.896,2.5707 -1.216,4 -0.2987,1.4293 -0.447999,2.8587 -0.447999,4.288 0,0.6187 0.05255,1.11455 0.376499,2.144 0.28275,0.7893 1.0457,1.66175 2.2575,2.74225 -5.141474,0.3095 -4.120671,-1.593924 -9.534499,0.1895 0.9685,-0.73975 1.01245,-1.4413 0.50675,-2.41725 -1.14055,-1.51705 -0.53955,-0.9732 -1.47825,-2.2745 -0.9173,-1.3227 -1.7493,-2.656 -2.496,-4 -0.7253,-1.344 -1.376,-2.624 -1.952,-3.84 v 3.264 c 0,1.3227 0.0427,2.432 0.128,3.328 0.0853,0.896 0.224,1.6747 0.416,2.336 0.192,0.6613 0.4373,1.248 0.736,1.76 0.2987,0.4907 0.6613,0.992 1.088,1.504 -0.4693,-0.128 -0.8853,-0.256 -1.248,-0.384 -0.3413,-0.128 -0.6827,-0.2773 -1.024,-0.448 -0.32,-0.1707 -0.6613,-0.384 -1.024,-0.64 -0.3413,-0.256 -0.7467,-0.576 -1.216,-0.96 -0.576,1.024 -1.344,1.9093 -2.304,2.656 -0.96,0.7467 -3.002001,1.3867 -4.623301,1.92 0.64,-0.6187 1.988601,-1.3227 2.543301,-2.112 0.5547,-0.768 1.0347,-1.5893 1.44,-2.464 0.4267,-0.896 0.7573,-1.8133 0.992,-2.752 0.256,-0.9387 0.384,-1.888 0.384,-2.848 0,-0.896 -0.1173,-1.76 -0.352,-2.592 -0.2133,-0.832 -0.576,-1.632 -1.088,-2.4 1.0453,-2.0053 1.568,-3.7973 1.568,-5.376 0,-1.344 -0.352,-2.5493 -1.056,-3.616 -0.6827,-1.088 -1.664,-2.0907 -2.944,-3.008 0.2133,-0.064 0.4587,-0.096 0.736,-0.096 0.4267,0 0.9067,0.0533 1.44,0.16 0.5547,0.0853 1.152,0.1813 1.792,0.288 0.6613,0.1067 1.3653,0.2133 2.112,0.32 0.768,0.0853 1.5893,0.128 2.464,0.128 h 0.608 c 0.2133,0 0.4267,-0.0107 0.64,-0.032 -1.152,0.448 -1.8133,1.2373 -1.984,2.368 0.384,0.96 0.8427,2.0693 1.376,3.328 0.5547,1.2587 1.1627,2.5813 1.824,3.968 0.6827,1.3867 1.4187,2.7947 2.208,4.224 0.7893,1.408 1.6107,2.752 2.464,4.032 z"
       fill="#ffffff"
       id="path1"
       sodipodi:nodetypes="ccccsccsscsccscccccscccccsccccsccscccccsccsccscccsscsscscccscccsscccscsccccsscscccccccccccccccssccscccscccscccsscccccsccccsccsccccccccccsccccccccsccsssccscscccsccccsccccsscsscccsccscccsccscccccscsccccccccccccccccccccccccccscccssccccscccsccccsccccsccsscccsccccccsccscccccscscccccccccscsccccsscscccccccccccccccssccscccscccscccsscccccsccccsccsccccccccccsccccccccsccsssccscscccsccccsccccsscsscccsccscccsccscccccscsccccccccccccsccccsssccccssscccccccccssscsccsccccscccccsscsscscccccccssccscccsccccccccsscscsccsccscccccccsssccccccsccccsccsccscccssccccccccssscsccsccscccccscscccsssssccccssccscccccccccscsscccccccscccccscccssccccsccssccccscccccccscccccccccccccscccccscccccscscccccccccsssccccscccccccccccscsccscccccccscccccccsccccccccccscccccccccsccccccccccccccssccsccccscscccccsscsccccsccccccccccccccccccccccsscscsccsccscccccccsssccccccsccccsccsccscccssccccccc" />
  </g>
  <defs
     id="defs2">
    <filter
       id="filter0_i_9_20"
       x="0.576004"
       y="0.167998"
       width="151.261"
       height="70.224"
       filterUnits="userSpaceOnUse"
       color-interpolation-filters="sRGB">
      <feFlood
         flood-opacity="0"
         result="BackgroundImageFix"
         id="feFlood1" />
      <feBlend
         mode="normal"
         in="SourceGraphic"
         in2="BackgroundImageFix"
         result="shape"
         id="feBlend1" />
      <feColorMatrix
         in="SourceAlpha"
         type="matrix"
         values="0 0 0 0 0 0 0 0 0 0 0 0 0 0 0 0 0 0 127 0"
         result="hardAlpha"
         id="feColorMatrix1" />
      <feOffset
         dx="1"
         dy="3"
         id="feOffset1" />
      <feGaussianBlur
         stdDeviation="2"
         id="feGaussianBlur1" />
      <feComposite
         in2="hardAlpha"
         operator="arithmetic"
         k2="-1"
         k3="1"
         id="feComposite1" />
      <feColorMatrix
         type="matrix"
         values="0 0 0 0 0 0 0 0 0 0 0 0 0 0 0 0 0 0 0.5 0"
         id="feColorMatrix2" />
      <feBlend
         mode="normal"
         in2="shape"
         result="effect1_innerShadow_9_20"
         id="feBlend2" />
    </filter>
  </defs>
</svg>
