<?xml version="1.0" encoding="UTF-8" standalone="no"?>
<svg
   width="72"
   height="72"
   viewBox="0 0 72 72"
   fill="none"
   version="1.1"
   id="svg3"
   sodipodi:docname="claw-icon 1.svg"
   inkscape:version="1.4.2 (f4327f4, 2025-05-13)"
   xmlns:inkscape="http://www.inkscape.org/namespaces/inkscape"
   xmlns:sodipodi="http://sodipodi.sourceforge.net/DTD/sodipodi-0.dtd"
   xmlns="http://www.w3.org/2000/svg"
   xmlns:svg="http://www.w3.org/2000/svg">
  <sodipodi:namedview
     id="namedview3"
     pagecolor="#ffffff"
     bordercolor="#666666"
     borderopacity="1.0"
     inkscape:showpageshadow="2"
     inkscape:pageopacity="0.0"
     inkscape:pagecheckerboard="0"
     inkscape:deskcolor="#d1d1d1"
     inkscape:zoom="12.5"
     inkscape:cx="48.6"
     inkscape:cy="47.32"
     inkscape:window-width="2560"
     inkscape:window-height="1377"
     inkscape:window-x="1072"
     inkscape:window-y="131"
     inkscape:window-maximized="1"
     inkscape:current-layer="svg3" />
  <g
     filter="url(#filter0_i_9_17)"
     id="g2"
     clip-path="none"
     transform="translate(-10.54,-12.3)">
    <g
       id="g3">
      <path
         d="M 61.6508,19.1855 H 31.8719 c -1.5147,0 -2.7356,1.2209 -2.7356,2.7356 v 57.3547 c 0,1.5146 1.2209,2.7355 2.7356,2.7355 h 29.7789 c 1.5146,0 2.7355,-1.2209 2.7355,-2.7355 V 21.9211 c 0,-1.5055 -1.2209,-2.7356 -2.7355,-2.7356 z m -18.6164,2.194 c 0,-0.3764 0.3029,-0.6793 0.6793,-0.6793 h 6.1045 c 0.3763,0 0.6793,0.3029 0.6793,0.6793 v 0.0918 c 0,0.3764 -0.303,0.6793 -0.6793,0.6793 h -6.1045 c -0.3764,0 -0.6793,-0.3029 -0.6793,-0.6793 z m 3.8646,58.3828 c -1.4596,0 -2.6529,-1.1842 -2.6529,-2.6529 0,-1.4688 1.1842,-2.653 2.6529,-2.653 1.4596,0 2.6529,1.1842 2.6529,2.653 0,1.4687 -1.1933,2.6529 -2.6529,2.6529 z M 32.184,72.8775 c -0.4406,0 -0.8078,-0.358 -0.8078,-0.8078 V 24.216 c 0,-0.4406 0.358,-0.8078 0.8078,-0.8078 h 29.2556 c 0.4407,0 0.8079,0.358 0.8079,0.8078 v 47.8629 c 0,0.4406 -0.3581,0.8078 -0.8079,0.8078"
         fill="#ffffff"
         id="path1" />
      <path
         d="m 53.1596,65.2217 -0.4131,0.0918 c -0.5324,0.1193 -1.6524,0.2295 -2.6162,0.0183 -0.6701,-0.1468 -1.019,-0.156 -2.5612,-0.0918 -2.4785,0.1194 -2.1296,0.2754 -2.8273,0.0918 -0.3213,-0.0918 -0.9639,-0.3488 -1.432,-0.5875 -0.4682,-0.2386 -0.8721,-0.4314 -0.8905,-0.4314 -0.156,0 0.0092,0.3213 0.2754,0.5416 0.9731,0.7711 1.1658,1.4963 3.2313,1.4963 0.4957,0 0.8904,0.0367 0.8904,0.0918 0,0.0459 -0.3213,0.2478 -0.7068,0.4314 -0.3856,0.1836 -0.6885,0.3672 -0.661,0.4039 0.0367,0.0276 0.2479,0.0551 0.459,0.0551 0.5049,0 0.4315,0.1469 -0.2111,0.4223 -0.3488,0.1468 -0.6885,0.2019 -1.3127,0.2019 -0.4682,0 -0.8537,0 -0.8537,0 0,0.0092 0.0734,0.3397 0.1652,0.7436 0.1102,0.5049 0.1652,1.2668 0.1652,2.4693 l 0.0459,1.7166 h -5.8199 l 0.1744,-1.0373 c 0.0918,-0.4498 0.5508,-3.0752 0.6885,-3.9656 0.2111,-1.4137 0.3121,-3.3322 0.202,-4.2135 -0.1561,-1.3219 -0.1928,-1.7166 -0.7436,-2.0103 l -0.3213,-0.2112 c -0.1652,-0.1285 -3.1853,-2.864 -3.8646,-3.6351 -0.1928,-0.2112 -0.6059,-0.8813 -0.9088,-1.478 -0.7528,-1.4228 -1.3311,-1.9644 -2.3867,-2.8824 -0.817,-0.7068 -0.8537,-0.9638 -1.3678,-1.9828 -0.5783,-1.1383 -1.5881,-2.5428 -2.0379,-2.8182 -0.1469,-0.0918 -0.6242,-0.3029 -1.074,-0.4589 -1.1199,-0.4223 -1.6065,-0.8446 -2.093,-1.8176 -0.7344,-1.5055 -3.6627,-6.894 -3.6627,-8.0598 -0.101,-1.2025 -0.101,-1.2025 0.9272,-0.2754 0.5048,0.4498 2.9742,2.9559 3.6535,3.3782 1.4871,0.9455 4.3236,3.4974 4.6541,4.0574 0.3121,0.4957 0.8812,1.074 1.3861,1.3861 0.2111,0.1285 0.9455,0.4498 1.4779,0.8813 1.735,1.3861 2.2215,1.0189 2.9192,1.0005 0.6334,-0.0183 0.7435,-0.1193 1.1383,-0.3029 0.3672,-0.1652 1.432,-0.8445 2.148,-4.8377 0,-0.0918 -0.0367,-0.6426 0.1744,-1.6707 0.2387,-1.1658 0.3121,-2.2307 0.1836,-3.2496 -0.2387,-1.9186 -0.9088,-3.7178 -1.6982,-5.0488 -0.2662,-0.459 -0.3947,-1.0098 -0.4223,-1.1108 -0.0367,-0.1009 0.0826,-0.5691 0.1744,-1.074 0.4039,-2.1205 0.6151,-4.2226 0.1102,-5.8291 -0.3856,-1.2576 -0.3764,-2.0654 0.0367,-4.0574 0.7252,-3.4975 1.0006,-4.3879 1.8084,-5.9117 0.4314,-0.8078 1.5238,-2.3409 1.6799,-2.3409 0.0367,0 -0.0551,0.4682 -0.202,1.0465 -0.4865,1.836 -0.514,3.1028 -0.5508,5.7098 -0.0091,1.8635 0.6059,2.8641 0.6059,3.525 0.0551,0.2754 0.0734,0.7711 0.101,1.175 l 0.0367,0.7344 c 0.0643,0.4131 0.0184,0.3947 0.101,0.7711 0.1836,0.8445 0.8812,2.7539 1.2025,3.2863 0.1928,0.3029 0.5233,0.7986 0.716,1.1016 0.4039,0.6242 0.4315,0.8078 0.1928,1.5972 -0.1652,0.5416 -0.156,0.6059 0.101,1.9186 0.3855,1.9185 0.6885,2.7722 1.4871,4.3053 1.0832,2.047 1.9002,2.7539 3.2037,2.7539 0.615,0 0.7252,-0.3489 1.0924,-0.7161 0.817,-0.8445 2.3867,-4.0482 2.8457,-6.7562 0.1377,-0.7711 0.1377,-0.9455 0,-1.4137 -0.0826,-0.2937 -0.1561,-0.6334 -0.1561,-0.7435 0,-0.1194 -0.0459,-0.8905 0.2479,-1.4871 0.459,-0.9088 0.973,-1.5239 1.7166,-3.626 0.5049,-1.4321 0.5967,-2.0563 0.6701,-2.6346 0.0184,-0.2111 0.3213,-2.4969 0.1102,-3.5984 -0.3856,-2.1205 -0.6702,-3.3965 -1.3311,-5.1223 -0.2295,-0.5875 -0.3764,-1.0924 -0.3396,-1.1199 0.1193,-0.1194 1.2851,1.1658 2.047,2.2765 1.2944,1.8635 1.6799,2.7356 2.3317,5.2141 0.5232,2.0012 0.5783,3.0018 0.1836,4.3053 -0.3672,1.2576 -0.3397,2.9834 0.0826,4.9111 0.358,1.6615 0.3672,1.6248 -0.4039,2.8365 -0.7252,1.1383 -0.9731,2.1022 -1.074,4.2227 -0.1102,2.1756 0.2845,4.7092 0.8628,5.5353 0.3305,0.4774 1.1108,0.5784 1.5698,0.4957 0.5049,-0.1009 1.0465,-0.4589 1.5881,-1.0832 0.5048,-0.5783 0.7343,-0.4957 2.047,-2.7171 l 0.6334,-1.4413 c 0.101,-0.2386 0.1836,-0.4865 0.1836,-0.7894 l 0.1928,-0.8354 c 0.101,-0.0826 0.0367,-0.3304 0.1377,-0.4222 l 0.3396,-0.3947 c 1.7442,-1.5147 1.7993,-1.8635 2.3317,-2.9375 l 0.2295,-0.7803 c -0.0551,-0.1285 1.1015,-1.9828 1.0464,-3.4332 -0.0826,-2.1297 -0.156,-2.8641 -0.358,-3.8096 -0.1468,-0.6334 -0.2386,-1.1842 -0.2111,-1.2117 0.1836,-0.1653 1.2209,1.3219 1.735,2.4877 0.7343,1.6799 1.1199,3.5158 1.1199,5.4068 0,1.2209 -0.0184,1.3861 -0.3213,2.194 -0.4406,1.2117 -0.5875,1.8267 -0.8445,3.4699 -0.4131,2.6529 -0.4223,2.6621 -1.3311,3.424 -0.7711,0.6518 -1.175,1.2209 -1.891,2.6254 -0.6793,1.3494 -0.9822,2.3133 -1.3953,4.4338 -0.2846,1.533 -0.4498,2.0471 -0.9455,3.0752 -0.5141,1.0832 -0.8354,2.1664 -1.1658,4.0666 -0.2662,1.4871 -0.4223,1.8543 -1.5606,3.6168 -0.7344,1.1566 -1.1199,1.6248 -1.9461,2.4326 -1.3861,1.3494 -0.817,0.7895 -0.817,1.7717 0,0.7711 0.3948,0.3396 0.5416,1.6615 0,1.9461 0.101,2.607 1.0006,7.0775 l 0.2846,1.1567 h -5.1406 c -0.0092,-0.1102 -0.1194,-1.1291 -0.1469,-1.992 -0.0551,-1.3402 -0.0275,-1.6707 0.1377,-2.2766 0.1101,-0.3947 0.1836,-0.7252 0.156,-0.7435 -0.0183,-0.0276 -0.2386,0.0183 -0.459,0.1009 -0.8353,0.2846 -2.3316,0.1286 -2.9742,-0.3029 -0.1652,-0.1101 -0.156,-0.1285 0.1469,-0.1836 0.1744,-0.0275 0.459,-0.0551 0.6242,-0.0551 0.4131,0 0.2846,-0.1468 -0.3763,-0.4406 -1.019,-0.459 -0.9547,-0.5416 0.4039,-0.5416 1.5054,0 1.1382,-0.0734 2.1939,-0.5599 0.8354,-0.3764 1.6248,-1.4321 1.5055,-1.5514 -0.0367,-0.0367 -0.2295,0.0183 -0.4131,0.1285 z"
         fill="#ffffff"
         id="path2" />
    </g>
  </g>
  <defs
     id="defs3">
    <filter
       id="filter0_i_9_17"
       x="0"
       y="0"
       width="95"
       height="97"
       filterUnits="userSpaceOnUse"
       color-interpolation-filters="sRGB">
      <feFlood
         flood-opacity="0"
         result="BackgroundImageFix"
         id="feFlood2" />
      <feBlend
         mode="normal"
         in="SourceGraphic"
         in2="BackgroundImageFix"
         result="shape"
         id="feBlend2" />
      <feColorMatrix
         in="SourceAlpha"
         type="matrix"
         values="0 0 0 0 0 0 0 0 0 0 0 0 0 0 0 0 0 0 127 0"
         result="hardAlpha"
         id="feColorMatrix2" />
      <feOffset
         dx="1"
         dy="3"
         id="feOffset2" />
      <feGaussianBlur
         stdDeviation="2"
         id="feGaussianBlur2" />
      <feComposite
         in2="hardAlpha"
         operator="arithmetic"
         k2="-1"
         k3="1"
         id="feComposite2"
         k1="0"
         k4="0" />
      <feColorMatrix
         type="matrix"
         values="0 0 0 0 0 0 0 0 0 0 0 0 0 0 0 0 0 0 0.5 0"
         id="feColorMatrix3" />
      <feBlend
         mode="normal"
         in2="shape"
         result="effect1_innerShadow_9_17"
         id="feBlend3" />
    </filter>
  </defs>
</svg>
